<svg width="27" height="42" viewBox="0 0 27 42" fill="none" xmlns="http://www.w3.org/2000/svg">
<path d="M0.0145427 17.718C0.7061 18.4155 1.35459 19.1254 2.06159 19.7702C2.97987 20.6084 4.03712 21.245 5.18375 21.7139C5.47224 21.8315 5.54782 21.991 5.54619 22.2921C5.53238 24.2505 5.51206 26.209 5.54375 28.1674C5.59251 31.1376 6.80253 33.5032 9.29978 35.1096C10.8982 36.1377 12.6503 36.5095 14.5584 36.2512C17.6115 35.8383 20.3671 33.5097 21.179 30.1555C22.1793 26.0206 19.6219 21.7303 15.5019 20.5936C14.6656 20.3633 13.8368 20.3443 12.9794 20.3846C12.0319 20.4291 11.0795 20.3271 10.1287 20.3262C7.2698 20.3254 4.82457 19.3096 2.82628 17.2516C1.30583 15.6864 0.342037 13.8028 0.117748 11.6115C-0.0163377 10.3004 0.016168 8.9704 0.00804156 7.64942C-0.00739862 5.23859 0.00316571 2.82857 0.00479099 0.417741C0.00479099 0.296829 0.0169806 0.176739 0.0259197 0.00236318C0.190073 0.00236318 0.333911 0.00236318 0.477748 0.00236318C3.46827 0.00236318 6.4596 0.011411 9.45012 -0.000104407C11.7775 -0.00915223 13.9822 0.419386 15.9204 1.81111C18.2827 3.50798 19.7268 5.78804 20.1469 8.70719C20.3842 10.3539 20.2444 11.9611 19.687 13.5782C17.9308 12.8281 16.126 12.4193 14.2098 12.2967C14.2837 12.0829 14.3438 11.8953 14.4129 11.7119C15.4726 8.92516 13.4654 5.78639 10.3741 5.66877C8.88777 5.61201 7.39739 5.66466 5.90863 5.65067C5.60958 5.64821 5.53806 5.77652 5.53888 6.04137C5.54375 7.42487 5.49824 8.80919 5.54944 10.1902C5.65183 12.9399 7.74357 14.7191 10.1986 14.7001C11.3891 14.6911 12.5804 14.6804 13.7717 14.7018C16.8785 14.7569 19.6366 15.8015 22.0347 17.7887C24.2759 19.646 25.7671 22.0108 26.5099 24.8428C27.1503 27.2865 27.2128 29.7788 26.4042 32.1567C25.0008 36.2858 22.4808 39.4723 18.3014 41.0746C16.1739 41.8897 13.9717 42.2022 11.7385 41.8625C6.77409 41.1066 3.20497 38.389 1.10348 33.7631C0.375355 32.1624 0.0112921 30.4557 0.00641627 28.6864C-0.00171014 25.0986 0.00397835 21.5099 0.00397835 17.922C0.00397835 17.8545 0.0104795 17.7871 0.0145427 17.718Z" fill="black"/>
</svg>
