<svg width="184" height="42" viewBox="0 0 184 42" fill="none" xmlns="http://www.w3.org/2000/svg">
<path d="M40.5381 18V2.40598H46.5077C47.6346 2.40598 48.5711 2.58365 49.3173 2.93898C50.0686 3.28924 50.6295 3.76894 51.0001 4.37808C51.3757 4.98722 51.5635 5.67758 51.5635 6.44916C51.5635 7.08368 51.4417 7.62683 51.1981 8.07861C50.9544 8.52531 50.627 8.88826 50.2158 9.16745C49.8046 9.44664 49.3452 9.64715 48.8376 9.76898V9.92126C49.3909 9.95172 49.9214 10.1218 50.429 10.4314C50.9417 10.736 51.3605 11.1675 51.6854 11.7258C52.0102 12.2842 52.1727 12.9594 52.1727 13.7512C52.1727 14.5584 51.9772 15.2842 51.5864 15.9289C51.1955 16.5685 50.6067 17.0736 49.8199 17.4442C49.0331 17.8147 48.0432 18 46.8503 18H40.5381ZM43.363 15.6396H46.4011C47.4265 15.6396 48.165 15.4441 48.6168 15.0533C49.0737 14.6573 49.3021 14.1497 49.3021 13.5304C49.3021 13.0685 49.1879 12.6522 48.9595 12.2817C48.731 11.906 48.4062 11.6116 47.9848 11.3984C47.5635 11.1802 47.061 11.071 46.4772 11.071H43.363V15.6396ZM43.363 9.03801H46.1574C46.6447 9.03801 47.0838 8.94918 47.4747 8.77151C47.8655 8.58877 48.1727 8.33242 48.396 8.00247C48.6244 7.66744 48.7386 7.2715 48.7386 6.81464C48.7386 6.21058 48.5254 5.71311 48.099 5.32225C47.6777 4.93138 47.0508 4.73595 46.2183 4.73595H43.363V9.03801ZM59.6861 18.2284C58.5135 18.2284 57.5008 17.9848 56.648 17.4975C55.8002 17.0051 55.148 16.3096 54.6911 15.4111C54.2342 14.5076 54.0058 13.4441 54.0058 12.2208C54.0058 11.0177 54.2342 9.96187 54.6911 9.05324C55.153 8.13953 55.7977 7.42886 56.6251 6.92124C57.4525 6.40855 58.4246 6.1522 59.5414 6.1522C60.2622 6.1522 60.9424 6.26895 61.582 6.50246C62.2267 6.73089 62.7952 7.08622 63.2876 7.56846C63.7851 8.05069 64.1759 8.66491 64.4602 9.41111C64.7445 10.1522 64.8866 11.0355 64.8866 12.0609V12.9061H55.3002V11.0482H62.2444C62.2394 10.5203 62.1252 10.0507 61.9018 9.63954C61.6785 9.22329 61.3663 8.89588 60.9653 8.6573C60.5693 8.41872 60.1074 8.29943 59.5795 8.29943C59.016 8.29943 58.5211 8.43648 58.0947 8.7106C57.6683 8.97963 57.3358 9.33497 57.0972 9.77659C56.8637 10.2131 56.7444 10.6928 56.7393 11.2157V12.8375C56.7393 13.5177 56.8637 14.1015 57.1124 14.5888C57.3612 15.071 57.7089 15.4416 58.1556 15.7005C58.6023 15.9543 59.1251 16.0812 59.7241 16.0812C60.1251 16.0812 60.4881 16.0254 60.813 15.9137C61.1378 15.7969 61.4196 15.6269 61.6582 15.4035C61.8967 15.1802 62.0769 14.9035 62.1988 14.5736L64.7724 14.8629C64.6099 15.5431 64.3003 16.137 63.8434 16.6447C63.3917 17.1472 62.813 17.5381 62.1074 17.8173C61.4018 18.0914 60.5947 18.2284 59.6861 18.2284ZM76.4622 9.39588L73.9495 9.66999C73.8784 9.41618 73.754 9.1776 73.5764 8.95425C73.4038 8.7309 73.1703 8.5507 72.8759 8.41364C72.5815 8.27658 72.221 8.20805 71.7946 8.20805C71.221 8.20805 70.7388 8.33242 70.3479 8.58115C69.9621 8.82989 69.7718 9.15222 69.7769 9.54816C69.7718 9.88827 69.8962 10.1649 70.15 10.3781C70.4088 10.5913 70.8352 10.7664 71.4292 10.9035L73.4241 11.3299C74.5307 11.5685 75.353 11.9467 75.8911 12.4644C76.4343 12.9822 76.7084 13.6599 76.7135 14.4974C76.7084 15.2335 76.4926 15.8832 76.0662 16.4467C75.6449 17.0051 75.0586 17.4416 74.3074 17.7563C73.5561 18.0711 72.6931 18.2284 71.7185 18.2284C70.287 18.2284 69.1347 17.9289 68.2616 17.3299C67.3885 16.7259 66.8682 15.8858 66.7007 14.8096L69.3885 14.5507C69.5104 15.0787 69.7692 15.4771 70.1652 15.7462C70.5611 16.0152 71.0764 16.1497 71.7109 16.1497C72.3657 16.1497 72.8911 16.0152 73.287 15.7462C73.6881 15.4771 73.8886 15.1447 73.8886 14.7487C73.8886 14.4137 73.7591 14.137 73.5002 13.9188C73.2464 13.7005 72.8505 13.533 72.3124 13.4162L70.3175 12.9974C69.1956 12.7639 68.3657 12.3705 67.8276 11.8172C67.2895 11.2588 67.023 10.5532 67.0281 9.70045C67.023 8.97963 67.2185 8.35526 67.6144 7.82734C68.0154 7.29434 68.5713 6.88317 69.2819 6.59383C69.9977 6.29941 70.8226 6.1522 71.7566 6.1522C73.1271 6.1522 74.2058 6.44408 74.9926 7.02784C75.7845 7.6116 76.2744 8.40095 76.4622 9.39588ZM84.8265 6.30449V8.43648H78.1031V6.30449H84.8265ZM79.763 3.50244H82.5193V14.4822C82.5193 14.8528 82.5752 15.137 82.6869 15.335C82.8036 15.5279 82.9559 15.6599 83.1437 15.7309C83.3315 15.802 83.5396 15.8375 83.7681 15.8375C83.9407 15.8375 84.098 15.8249 84.2402 15.7995C84.3874 15.7741 84.499 15.7513 84.5752 15.7309L85.0397 17.8858C84.8925 17.9365 84.6818 17.9924 84.4077 18.0533C84.1386 18.1142 83.8087 18.1497 83.4178 18.1599C82.7275 18.1802 82.1056 18.0761 81.5523 17.8477C80.999 17.6142 80.5599 17.2538 80.2351 16.7665C79.9153 16.2792 79.7579 15.67 79.763 14.9391V3.50244ZM49.0128 27.6928C48.9417 27.0278 48.6422 26.5101 48.1143 26.1395C47.5914 25.7689 46.9112 25.5837 46.0737 25.5837C45.4848 25.5837 44.9797 25.6725 44.5584 25.8502C44.1371 26.0278 43.8148 26.2689 43.5914 26.5735C43.3681 26.8781 43.2538 27.2258 43.2488 27.6167C43.2488 27.9415 43.3224 28.2233 43.4696 28.4619C43.6219 28.7004 43.8274 28.9035 44.0863 29.071C44.3452 29.2334 44.632 29.3705 44.9467 29.4822C45.2615 29.5938 45.5787 29.6878 45.8985 29.7639L47.3605 30.1294C47.9493 30.2664 48.5153 30.4517 49.0584 30.6852C49.6067 30.9187 50.0965 31.2131 50.528 31.5685C50.9645 31.9238 51.3097 32.3527 51.5635 32.8553C51.8173 33.3578 51.9443 33.9467 51.9443 34.6218C51.9443 35.5355 51.7107 36.3401 51.2437 37.0355C50.7767 37.7259 50.1016 38.2665 49.2183 38.6574C48.3402 39.0431 47.2767 39.236 46.028 39.236C44.8148 39.236 43.7615 39.0482 42.868 38.6726C41.9797 38.2969 41.2843 37.7487 40.7817 37.0279C40.2843 36.3071 40.0152 35.4289 39.9746 34.3934H42.7538C42.7944 34.9365 42.962 35.3883 43.2564 35.7487C43.5508 36.1091 43.934 36.3782 44.4061 36.5558C44.8833 36.7335 45.4163 36.8223 46.0051 36.8223C46.6193 36.8223 47.1574 36.7309 47.6193 36.5482C48.0864 36.3604 48.4518 36.1015 48.7158 35.7716C48.9798 35.4365 49.1143 35.0457 49.1194 34.599C49.1143 34.1929 48.995 33.8578 48.7615 33.5939C48.528 33.3248 48.2006 33.1015 47.7792 32.9238C47.363 32.7411 46.8757 32.5786 46.3173 32.4365L44.5432 31.9796C43.2589 31.6497 42.2437 31.1497 41.4975 30.4796C40.7564 29.8045 40.3858 28.9086 40.3858 27.7918C40.3858 26.873 40.6345 26.0684 41.132 25.3781C41.6345 24.6877 42.3173 24.1522 43.1802 23.7715C44.0432 23.3857 45.0203 23.1928 46.1117 23.1928C47.2183 23.1928 48.1879 23.3857 49.0204 23.7715C49.8579 24.1522 50.5153 24.6826 50.9925 25.3628C51.4696 26.038 51.7158 26.8146 51.7311 27.6928H49.0128ZM59.4424 39.2284C58.3003 39.2284 57.3104 38.9772 56.4728 38.4746C55.6353 37.9721 54.9855 37.269 54.5236 36.3655C54.0667 35.4619 53.8383 34.4061 53.8383 33.1979C53.8383 31.9898 54.0667 30.9314 54.5236 30.0228C54.9855 29.1141 55.6353 28.4086 56.4728 27.906C57.3104 27.4035 58.3003 27.1522 59.4424 27.1522C60.5845 27.1522 61.5744 27.4035 62.412 27.906C63.2495 28.4086 63.8967 29.1141 64.3536 30.0228C64.8155 30.9314 65.0465 31.9898 65.0465 33.1979C65.0465 34.4061 64.8155 35.4619 64.3536 36.3655C63.8967 37.269 63.2495 37.9721 62.412 38.4746C61.5744 38.9772 60.5845 39.2284 59.4424 39.2284ZM59.4576 37.0203C60.0769 37.0203 60.5947 36.8502 61.0109 36.5101C61.4272 36.165 61.7368 35.703 61.9399 35.1243C62.148 34.5457 62.2521 33.901 62.2521 33.1903C62.2521 32.4746 62.148 31.8274 61.9399 31.2487C61.7368 30.6649 61.4272 30.2004 61.0109 29.8553C60.5947 29.5101 60.0769 29.3375 59.4576 29.3375C58.8231 29.3375 58.2952 29.5101 57.8739 29.8553C57.4576 30.2004 57.1454 30.6649 56.9373 31.2487C56.7343 31.8274 56.6327 32.4746 56.6327 33.1903C56.6327 33.901 56.7343 34.5457 56.9373 35.1243C57.1454 35.703 57.4576 36.165 57.8739 36.5101C58.2952 36.8502 58.8231 37.0203 59.4576 37.0203ZM70.1423 23.406V39H67.386V23.406H70.1423ZM80.4311 34.0812V27.3045H83.1875V39H80.5149V36.9213H80.3931C80.1291 37.5761 79.6951 38.1117 79.091 38.5279C78.492 38.9442 77.7534 39.1523 76.8753 39.1523C76.1088 39.1523 75.4311 38.9822 74.8423 38.6421C74.2585 38.2969 73.8016 37.7969 73.4717 37.1421C73.1417 36.4822 72.9768 35.6853 72.9768 34.7512V27.3045H75.7331V34.3248C75.7331 35.066 75.9362 35.6548 76.3423 36.0914C76.7484 36.5279 77.2814 36.7462 77.9413 36.7462C78.3474 36.7462 78.7408 36.6472 79.1215 36.4492C79.5022 36.2513 79.8144 35.9568 80.058 35.566C80.3068 35.17 80.4311 34.6751 80.4311 34.0812ZM91.862 27.3045V29.4365H85.1386V27.3045H91.862ZM86.7986 24.5024H89.5549V35.4822C89.5549 35.8528 89.6108 36.137 89.7224 36.335C89.8392 36.5279 89.9915 36.6599 90.1793 36.7309C90.3671 36.802 90.5752 36.8375 90.8037 36.8375C90.9762 36.8375 91.1336 36.8249 91.2757 36.7995C91.423 36.7741 91.5346 36.7513 91.6108 36.7309L92.0752 38.8858C91.928 38.9365 91.7174 38.9924 91.4433 39.0533C91.1742 39.1142 90.8443 39.1497 90.4534 39.1599C89.763 39.1802 89.1412 39.0761 88.5879 38.8477C88.0346 38.6142 87.5955 38.2538 87.2706 37.7665C86.9508 37.2792 86.7935 36.67 86.7986 35.9391V24.5024ZM94.1673 39V27.3045H96.9236V39H94.1673ZM95.5531 25.6446C95.1165 25.6446 94.7409 25.4999 94.4261 25.2106C94.1114 24.9161 93.9541 24.5634 93.9541 24.1522C93.9541 23.7359 94.1114 23.3831 94.4261 23.0938C94.7409 22.7994 95.1165 22.6522 95.5531 22.6522C95.9947 22.6522 96.3703 22.7994 96.68 23.0938C96.9947 23.3831 97.1521 23.7359 97.1521 24.1522C97.1521 24.5634 96.9947 24.9161 96.68 25.2106C96.3703 25.4999 95.9947 25.6446 95.5531 25.6446ZM104.86 39.2284C103.717 39.2284 102.728 38.9772 101.89 38.4746C101.052 37.9721 100.403 37.269 99.9408 36.3655C99.4839 35.4619 99.2555 34.4061 99.2555 33.1979C99.2555 31.9898 99.4839 30.9314 99.9408 30.0228C100.403 29.1141 101.052 28.4086 101.89 27.906C102.728 27.4035 103.717 27.1522 104.86 27.1522C106.002 27.1522 106.992 27.4035 107.829 27.906C108.667 28.4086 109.314 29.1141 109.771 30.0228C110.233 30.9314 110.464 31.9898 110.464 33.1979C110.464 34.4061 110.233 35.4619 109.771 36.3655C109.314 37.269 108.667 37.9721 107.829 38.4746C106.992 38.9772 106.002 39.2284 104.86 39.2284ZM104.875 37.0203C105.494 37.0203 106.012 36.8502 106.428 36.5101C106.844 36.165 107.154 35.703 107.357 35.1243C107.565 34.5457 107.669 33.901 107.669 33.1903C107.669 32.4746 107.565 31.8274 107.357 31.2487C107.154 30.6649 106.844 30.2004 106.428 29.8553C106.012 29.5101 105.494 29.3375 104.875 29.3375C104.24 29.3375 103.712 29.5101 103.291 29.8553C102.875 30.2004 102.563 30.6649 102.354 31.2487C102.151 31.8274 102.05 32.4746 102.05 33.1903C102.05 33.901 102.151 34.5457 102.354 35.1243C102.563 35.703 102.875 36.165 103.291 36.5101C103.712 36.8502 104.24 37.0203 104.875 37.0203ZM115.56 32.1472V39H112.803V27.3045H115.438V29.2918H115.575C115.844 28.637 116.273 28.1167 116.862 27.7309C117.455 27.3451 118.189 27.1522 119.062 27.1522C119.869 27.1522 120.572 27.3248 121.171 27.67C121.775 28.0152 122.242 28.5152 122.572 29.17C122.907 29.8248 123.072 30.6192 123.067 31.5532V39H120.311V31.9796C120.311 31.1979 120.108 30.5862 119.702 30.1446C119.301 29.703 118.745 29.4822 118.034 29.4822C117.552 29.4822 117.123 29.5888 116.747 29.802C116.377 30.0101 116.085 30.3121 115.872 30.7081C115.664 31.104 115.56 31.5837 115.56 32.1472ZM135.113 30.3959L132.6 30.67C132.529 30.4162 132.405 30.1776 132.227 29.9543C132.055 29.7309 131.821 29.5507 131.527 29.4136C131.232 29.2766 130.872 29.2081 130.445 29.2081C129.872 29.2081 129.39 29.3324 128.999 29.5812C128.613 29.8299 128.423 30.1522 128.428 30.5482C128.423 30.8883 128.547 31.1649 128.801 31.3781C129.06 31.5913 129.486 31.7664 130.08 31.9035L132.075 32.3299C133.181 32.5685 134.004 32.9467 134.542 33.4644C135.085 33.9822 135.359 34.6599 135.364 35.4974C135.359 36.2335 135.143 36.8832 134.717 37.4467C134.296 38.0051 133.709 38.4416 132.958 38.7563C132.207 39.0711 131.344 39.2284 130.369 39.2284C128.938 39.2284 127.786 38.9289 126.912 38.3299C126.039 37.7259 125.519 36.8858 125.351 35.8096L128.039 35.5507C128.161 36.0787 128.42 36.4771 128.816 36.7462C129.212 37.0152 129.727 37.1497 130.362 37.1497C131.017 37.1497 131.542 37.0152 131.938 36.7462C132.339 36.4771 132.539 36.1447 132.539 35.7487C132.539 35.4137 132.41 35.137 132.151 34.9188C131.897 34.7005 131.501 34.533 130.963 34.4162L128.968 33.9974C127.846 33.7639 127.016 33.3705 126.478 32.8172C125.94 32.2588 125.674 31.5532 125.679 30.7005C125.674 29.9796 125.869 29.3553 126.265 28.8273C126.666 28.2943 127.222 27.8832 127.933 27.5938C128.648 27.2994 129.473 27.1522 130.407 27.1522C131.778 27.1522 132.857 27.4441 133.643 28.0278C134.435 28.6116 134.925 29.4009 135.113 30.3959Z" fill="black"/>
<g clip-path="url(#clip0_1_84)">
<path d="M0.0145427 17.718C0.7061 18.4155 1.35459 19.1254 2.06159 19.7702C2.97987 20.6084 4.03712 21.245 5.18375 21.7139C5.47224 21.8315 5.54782 21.991 5.54619 22.2921C5.53238 24.2505 5.51206 26.209 5.54375 28.1674C5.59251 31.1376 6.80253 33.5032 9.29978 35.1096C10.8982 36.1377 12.6503 36.5095 14.5584 36.2512C17.6115 35.8383 20.3671 33.5097 21.179 30.1555C22.1793 26.0206 19.6219 21.7303 15.5019 20.5936C14.6656 20.3633 13.8368 20.3443 12.9794 20.3846C12.0319 20.4291 11.0795 20.3271 10.1287 20.3262C7.2698 20.3254 4.82457 19.3096 2.82628 17.2516C1.30583 15.6864 0.342037 13.8028 0.117748 11.6115C-0.0163377 10.3004 0.016168 8.9704 0.00804156 7.64942C-0.00739862 5.23859 0.00316571 2.82857 0.00479099 0.417741C0.00479099 0.296829 0.0169806 0.176739 0.0259197 0.00236318C0.190073 0.00236318 0.333911 0.00236318 0.477748 0.00236318C3.46827 0.00236318 6.4596 0.011411 9.45012 -0.000104407C11.7775 -0.00915223 13.9822 0.419386 15.9204 1.81111C18.2827 3.50798 19.7268 5.78804 20.1469 8.70719C20.3842 10.3539 20.2444 11.9611 19.687 13.5782C17.9308 12.8281 16.126 12.4193 14.2098 12.2967C14.2837 12.0829 14.3438 11.8953 14.4129 11.7119C15.4726 8.92516 13.4654 5.78639 10.3741 5.66877C8.88777 5.61201 7.39739 5.66466 5.90863 5.65067C5.60958 5.64821 5.53806 5.77652 5.53888 6.04137C5.54375 7.42487 5.49824 8.80919 5.54944 10.1902C5.65183 12.9399 7.74357 14.7191 10.1986 14.7001C11.3891 14.6911 12.5804 14.6804 13.7717 14.7018C16.8785 14.7569 19.6366 15.8015 22.0347 17.7887C24.2759 19.646 25.7671 22.0108 26.5099 24.8428C27.1503 27.2865 27.2128 29.7788 26.4042 32.1567C25.0008 36.2858 22.4808 39.4723 18.3014 41.0746C16.1739 41.8897 13.9717 42.2022 11.7385 41.8625C6.77409 41.1066 3.20497 38.389 1.10348 33.7631C0.375355 32.1624 0.0112921 30.4557 0.00641627 28.6864C-0.00171014 25.0986 0.00397835 21.5099 0.00397835 17.922C0.00397835 17.8545 0.0104795 17.7871 0.0145427 17.718Z" fill="black"/>
</g>
<defs>
<clipPath id="clip0_1_84">
<rect width="27" height="42" fill="white"/>
</clipPath>
</defs>
</svg>
